# xmcd
#
# Track frame offsets: 
#        150
#        22146
#        51319
#        76609
#        98143
#        119869
#        139859
#        161728
#        187159
#        205850
#        227560
#        258469
#        278859
#        300246
#        324019
#
# Disc length: 4558 seconds
#
# Revision: 0
# Processed by: cddbd v1.5.2PL0 Copyright (c) Steve Scherf et al.
# Submitted via: ExactAudioCopyFreeDBPlugin 1.0
#
DISCID=cf11cc0f
DTITLE=Nadeem Shravan - Sajni
DYEAR=1996
DGENRE=Pop-Folk
TTITLE0=Vinod Rathod - Tum Jab Aaina Dekhti Hogi
TTITLE1=Kumar Sanu, Suchandra - Dil Mein Tum Dhadkan
TTITLE2=Sonu NIgam, Suchandra - Ai Dil Yeh Baten
TTITLE3=Suchandra - Ek Chehra Hai Jise
TTITLE4=Udit Narayan, Suchandra - Chpke Se Wahin Milte Hain
TTITLE5=Suchandra - Baja Bajega To
TTITLE6=Suchandra - Woh Jab Aaina Dekhte Honge
TTITLE7=Babul Supriyo - Dil Kya Kare
TTITLE8=PV 304 - O Jane Jaan
TTITLE9=Bali Brahmbhatt - Tujhko Main Tujhse Churaunga
TTITLE10=Kavita Krishnamurthy - Paas Rahke Bhi Koi Paas Na o
TTITLE11=Kumar Sanu - Dil Ko Kahaan Raha Qaraar (Pyari Si Ek Ladki)
TTITLE12=Kumar Sanu - Tere Pyar Mein Saathi (Pyari Si Ek Ladki)
TTITLE13=Kumar Sanu and Suchandra - Pyari Si Ek Ladki (Pyari Si Ek Ladki
TTITLE13=)
TTITLE14=Suchandra - Dil Ko Kahan Raha Qaraar (Pyari Si Ek Ladki)
EXTD=
EXTT0=
EXTT1=
EXTT2=
EXTT3=
EXTT4=
EXTT5=
EXTT6=
EXTT7=
EXTT8=
EXTT9=
EXTT10=
EXTT11=
EXTT12=
EXTT13=
EXTT14=
PLAYORDER=
